<svg width="217" height="67" viewBox="0 0 217 67" fill="none" xmlns="http://www.w3.org/2000/svg">
<path d="M65.2806 66.048C61.4406 66.048 57.6006 65.504 53.7606 64.416C49.9206 63.392 46.1126 62.08 42.3366 60.48C38.5606 58.944 34.8486 57.44 31.2006 55.968C28.4486 57.376 25.4726 58.624 22.2726 59.712C19.0726 60.864 15.7446 61.504 12.2886 61.632C8.06459 61.632 4.96059 60.864 2.97659 59.328C0.992594 57.792 0.000593759 55.968 0.000593759 53.856C0.000593759 51.744 0.992594 49.792 2.97659 48C4.96059 46.208 7.71259 45.312 11.2326 45.312C14.3046 45.312 17.5046 46.016 20.8326 47.424C24.1606 48.832 27.6166 50.464 31.2006 52.32C33.6326 50.272 36.0326 47.968 38.4006 45.408C40.8326 42.784 43.2326 40 45.6006 37.056C43.8726 36.928 42.0166 36.608 40.0326 36.096C38.1126 35.52 36.2886 34.784 34.5606 33.888C32.8326 32.928 31.3926 31.776 30.2406 30.432C29.1526 29.024 28.6086 27.392 28.6086 25.536C28.6086 23.424 29.2166 21.632 30.4326 20.16C31.6486 18.624 33.2166 17.376 35.1366 16.416C37.1206 15.456 39.2326 14.752 41.4726 14.304C43.7766 13.792 45.9846 13.536 48.0966 13.536C50.5926 13.536 52.9606 13.76 55.2006 14.208C57.4406 14.592 59.4886 15.136 61.3446 15.84C63.6486 13.024 66.0806 10.432 68.6406 8.064C71.2006 5.632 73.8566 3.68 76.6086 2.208C79.4246 0.736 82.3366 0 85.3446 0C87.8406 0 89.6646 0.671999 90.8166 2.016C92.0326 3.296 92.6406 4.96 92.6406 7.008C92.6406 9.568 91.7446 12.448 89.9526 15.648C88.2246 18.848 85.6326 21.984 82.1766 25.056C78.7206 28.128 74.4646 30.752 69.4086 32.928C64.4166 35.104 58.6886 36.448 52.2246 36.96C49.6646 40.288 46.9126 43.424 43.9686 46.368C41.0886 49.312 37.8886 51.872 34.3686 54.048C37.5046 55.648 40.6726 57.216 43.8726 58.752C47.1366 60.352 50.4646 61.632 53.8566 62.592C57.3126 63.616 60.8326 64.128 64.4166 64.128C66.4646 64.128 68.5126 63.84 70.5606 63.264C72.6086 62.752 74.3366 61.792 75.7446 60.384C77.1526 59.04 77.8566 57.184 77.8566 54.816C77.8566 52.576 76.9926 50.976 75.2646 50.016C73.6006 49.056 71.5526 48.576 69.1206 48.576C67.4566 48.576 65.6326 48.864 63.6486 49.44C61.7286 49.952 60.0646 50.72 58.6566 51.744C58.4006 51.936 58.1766 52.032 57.9846 52.032C57.7926 52.032 57.6966 51.968 57.6966 51.84C57.6966 51.2 58.4006 50.528 59.8086 49.824C61.2166 49.056 62.8806 48.416 64.8006 47.904C66.7846 47.328 68.5126 47.04 69.9846 47.04C71.3926 47.04 73.0246 47.296 74.8806 47.808C76.7366 48.256 78.3686 49.056 79.7766 50.208C81.1846 51.36 81.8886 52.96 81.8886 55.008C81.8886 57.568 81.0246 59.648 79.2966 61.248C77.5686 62.912 75.4246 64.128 72.8646 64.896C70.3686 65.664 67.8406 66.048 65.2806 66.048ZM53.5686 35.232C59.3286 34.592 64.4486 33.152 68.9286 30.912C73.4726 28.672 77.3446 26.08 80.5446 23.136C83.7446 20.128 86.1766 17.12 87.8406 14.112C89.5046 11.104 90.3366 8.512 90.3366 6.336C90.3366 4.864 89.9206 3.68 89.0886 2.784C88.3206 1.888 87.1046 1.44 85.4406 1.44C83.8406 1.44 82.1766 1.92 80.4486 2.88C78.7206 3.776 77.0246 4.928 75.3606 6.336C73.7606 7.744 72.2886 9.184 70.9446 10.656C69.6646 12.064 68.6726 13.28 67.9686 14.304L65.3766 17.952C67.2326 19.232 68.8006 20.704 70.0806 22.368C70.3366 22.688 70.4646 23.136 70.4646 23.712C70.4646 24.096 70.4006 24.288 70.2726 24.288C70.2086 24.288 70.1126 24.192 69.9846 24C68.5126 22.144 66.6886 20.544 64.5126 19.2C62.7846 21.76 61.0246 24.416 59.2326 27.168C57.4406 29.856 55.5526 32.544 53.5686 35.232ZM46.7526 35.52C48.6086 33.28 50.6566 30.496 52.8966 27.168C55.1366 23.84 57.6006 20.512 60.2886 17.184C56.4486 15.712 52.2246 14.976 47.6166 14.976C46.2086 14.976 44.6086 15.232 42.8166 15.744C41.0886 16.192 39.4246 16.896 37.8246 17.856C36.2886 18.752 35.0086 19.872 33.9846 21.216C32.9606 22.56 32.4486 24.128 32.4486 25.92C32.4486 27.968 33.2166 29.696 34.7526 31.104C36.2886 32.512 38.1766 33.568 40.4166 34.272C42.6566 34.976 44.7686 35.392 46.7526 35.52ZM12.2886 60.096C15.1686 60.096 17.9206 59.584 20.5446 58.56C23.1686 57.6 25.6966 56.288 28.1286 54.624C24.8006 53.28 21.5686 52.16 18.4326 51.264C15.3606 50.304 12.4166 49.824 9.60059 49.824C6.97659 49.824 5.08859 50.208 3.93659 50.976C2.78459 51.744 2.20859 52.672 2.20859 53.76C2.20859 55.168 3.13659 56.576 4.99259 57.984C6.84859 59.392 9.28059 60.096 12.2886 60.096ZM91.6303 57.696C89.2623 57.696 88.0783 56.352 88.0783 53.664C88.0783 52.128 88.5263 50.304 89.4223 48.192C90.3183 46.016 91.6623 43.744 93.4543 41.376C94.7343 39.776 96.3023 38.08 98.1583 36.288C100.014 34.432 102.03 32.672 104.206 31.008C106.446 29.344 108.718 28 111.022 26.976C113.326 25.888 115.566 25.344 117.742 25.344C118.702 25.344 119.374 25.504 119.758 25.824C120.142 26.08 120.398 26.368 120.526 26.688C120.654 26.944 120.654 27.136 120.526 27.264C120.462 27.392 120.366 27.424 120.238 27.36C119.982 27.232 119.47 27.168 118.702 27.168C116.398 27.168 113.646 28.288 110.446 30.528C107.31 32.704 104.206 35.552 101.134 39.072C98.9583 41.504 97.1663 43.904 95.7583 46.272C94.3503 48.576 93.4223 50.496 92.9743 52.032C92.8463 52.544 92.7823 52.992 92.7823 53.376C92.7823 54.272 93.1343 54.72 93.8383 54.72C94.2863 54.72 94.8943 54.528 95.6623 54.144C96.4303 53.696 97.4223 52.96 98.6383 51.936C100.558 50.272 102.446 48.32 104.302 46.08C106.222 43.84 108.11 41.568 109.966 39.264C111.822 36.896 113.614 34.72 115.342 32.736C117.134 30.752 118.83 29.248 120.43 28.224C122.478 26.88 123.886 26.112 124.654 25.92C125.486 25.728 126.158 25.6 126.67 25.536C126.35 25.92 125.646 26.816 124.558 28.224C123.47 29.632 122.318 31.136 121.102 32.736C119.886 34.272 118.894 35.552 118.126 36.576C116.974 38.24 115.726 40.032 114.382 41.952C113.102 43.872 111.918 45.696 110.83 47.424C109.806 49.088 109.102 50.464 108.718 51.552C108.398 52.64 108.238 53.44 108.238 53.952C108.238 54.976 108.654 55.488 109.486 55.488C110.062 55.488 110.734 55.264 111.502 54.816C112.334 54.304 113.166 53.728 113.998 53.088C115.086 52.192 116.11 51.264 117.07 50.304C118.03 49.28 119.022 48.16 120.046 46.944C120.302 46.944 120.43 47.136 120.43 47.52C120.43 48.096 120.302 48.544 120.046 48.864C119.214 49.824 118.19 50.88 116.974 52.032C115.822 53.184 114.67 54.208 113.518 55.104C112.686 55.808 111.726 56.416 110.638 56.928C109.55 57.44 108.494 57.696 107.47 57.696C105.998 57.696 104.974 57.344 104.398 56.64C103.822 55.936 103.534 55.04 103.534 53.952C103.534 52.672 103.822 51.296 104.398 49.824C104.974 48.288 105.614 46.848 106.318 45.504C105.486 46.528 104.43 47.776 103.15 49.248C101.87 50.656 100.718 51.84 99.6943 52.8C98.2863 54.08 96.9423 55.232 95.6623 56.256C94.3823 57.216 93.0383 57.696 91.6303 57.696ZM134.883 57.696C133.539 57.696 132.579 57.344 132.003 56.64C131.427 55.872 131.139 54.912 131.139 53.76C131.139 52.032 131.747 50.08 132.963 47.904C134.179 45.664 135.747 43.328 137.667 40.896C139.651 38.464 141.699 36.064 143.811 33.696C145.987 31.328 148.035 29.152 149.955 27.168C148.995 27.168 147.939 27.424 146.787 27.936C145.699 28.448 144.579 29.056 143.427 29.76C141.699 30.912 139.811 32.448 137.763 34.368C135.715 36.288 133.667 38.336 131.619 40.512C129.571 42.688 127.619 44.832 125.763 46.944C124.291 48.672 123.107 50.112 122.211 51.264C121.379 52.416 120.643 53.472 120.003 54.432C119.427 55.328 118.787 56.352 118.083 57.504C117.059 57.504 116.547 56.896 116.547 55.68C116.547 54.4 116.963 52.864 117.795 51.072C118.563 49.28 119.235 47.872 119.811 46.848C121.475 44.032 123.363 41.088 125.475 38.016C127.651 34.88 129.667 32.128 131.523 29.76C132.483 28.48 133.507 27.552 134.595 26.976C135.683 26.336 136.611 25.952 137.379 25.824C138.147 25.632 138.531 25.536 138.531 25.536C138.147 26.112 137.347 27.328 136.131 29.184C134.915 31.04 133.507 33.216 131.907 35.712C130.307 38.208 128.675 40.736 127.011 43.296C129.635 40.288 132.451 37.376 135.459 34.56C138.467 31.68 141.347 29.344 144.099 27.552C144.931 26.976 145.795 26.496 146.691 26.112C147.587 25.728 148.515 25.536 149.475 25.536C151.203 25.536 152.067 26.208 152.067 27.552C152.067 28.576 151.459 29.792 150.243 31.2C148.771 32.928 147.171 34.848 145.443 36.96C143.715 39.072 142.051 41.216 140.451 43.392C138.915 45.568 137.635 47.584 136.611 49.44C135.651 51.296 135.171 52.8 135.171 53.952C135.171 54.592 135.331 55.072 135.651 55.392C136.035 55.648 136.355 55.776 136.611 55.776C137.571 55.776 138.627 55.392 139.779 54.624C140.995 53.856 142.147 52.96 143.235 51.936C144.387 50.848 145.379 49.824 146.211 48.864C147.107 47.904 147.683 47.264 147.939 46.944C148.195 46.944 148.323 47.136 148.323 47.52C148.323 48.096 148.195 48.544 147.939 48.864C147.043 49.824 145.859 51.008 144.387 52.416C142.915 53.824 141.347 55.072 139.683 56.16C138.019 57.184 136.419 57.696 134.883 57.696ZM150.142 57.984C148.542 57.984 147.422 57.6 146.782 56.832C146.142 56.064 145.822 55.072 145.822 53.856C145.822 51.744 146.59 49.344 148.126 46.656C149.022 45.12 150.238 43.36 151.774 41.376C153.374 39.328 155.166 37.184 157.15 34.944C159.134 32.64 161.118 30.4 163.102 28.224H156.67L157.726 26.88H164.35C166.142 25.024 167.806 23.296 169.342 21.696C170.942 20.032 172.254 18.688 173.278 17.664C176.094 14.848 178.686 12.704 181.054 11.232C183.486 9.76 185.406 9.024 186.814 9.024C185.79 9.92 184.286 11.328 182.302 13.248C180.382 15.168 178.238 17.312 175.87 19.68C173.566 22.048 171.294 24.448 169.054 26.88H175.678L174.622 28.224H167.902C166.686 29.632 165.534 30.944 164.446 32.16C163.422 33.376 162.526 34.528 161.758 35.616C158.75 39.712 156.318 43.072 154.462 45.696C152.606 48.32 151.39 50.304 150.814 51.648C150.366 52.736 150.142 53.632 150.142 54.336C150.142 55.552 150.718 56.16 151.87 56.16C152.83 56.16 153.854 55.84 154.942 55.2C156.542 54.304 158.142 53.024 159.742 51.36C161.406 49.632 162.75 48.16 163.774 46.944C164.03 46.944 164.158 47.136 164.158 47.52C164.158 48.096 164.03 48.544 163.774 48.864C161.342 51.68 159.07 53.92 156.958 55.584C154.846 57.184 152.574 57.984 150.142 57.984ZM171.745 58.272C170.465 58.272 169.217 58.144 168.001 57.888C166.849 57.632 165.825 57.184 164.929 56.544C164.225 56.032 163.649 55.328 163.201 54.432C162.689 53.536 162.433 52.384 162.433 50.976C162.433 49.312 162.849 48.032 163.681 47.136C164.449 46.24 165.281 45.792 166.177 45.792C166.881 44.896 167.841 43.648 169.057 42.048C170.273 40.384 171.617 38.56 173.089 36.576C174.625 34.592 176.193 32.608 177.793 30.624C179.393 28.576 180.897 26.752 182.305 25.152C183.201 24.256 184.129 23.296 185.089 22.272C186.113 21.248 187.233 20.384 188.449 19.68C189.729 18.912 191.073 18.528 192.481 18.528C193.569 18.528 194.337 18.784 194.785 19.296C195.297 19.808 195.553 20.416 195.553 21.12C195.553 21.504 195.457 21.856 195.265 22.176C194.561 22.048 193.569 22.176 192.289 22.56C191.009 22.88 189.601 23.488 188.065 24.384C186.401 25.408 184.705 26.688 182.977 28.224C182.913 28.992 182.817 30.176 182.689 31.776C182.625 33.312 182.529 35.072 182.401 37.056C182.273 38.976 182.049 40.928 181.729 42.912C181.473 44.832 181.121 46.528 180.673 48C180.353 49.024 179.841 50.176 179.137 51.456C178.433 52.672 177.473 53.824 176.257 54.912C175.105 55.936 173.665 56.64 171.937 57.024C174.241 57.024 176.161 56.672 177.697 55.968C179.233 55.264 180.513 54.464 181.537 53.568C182.625 52.608 183.489 51.84 184.129 51.264C184.641 50.752 185.345 50.016 186.241 49.056C187.137 48.096 187.777 47.392 188.161 46.944C188.417 46.944 188.545 47.136 188.545 47.52C188.545 48.096 188.417 48.544 188.161 48.864C185.473 51.744 183.233 53.856 181.441 55.2C179.841 56.416 178.209 57.216 176.545 57.6C174.881 58.048 173.281 58.272 171.745 58.272ZM168.385 56.448C169.473 56.448 170.465 56.032 171.361 55.2C172.321 54.304 173.185 53.28 173.953 52.128C174.721 50.912 175.329 49.792 175.777 48.768C176.481 47.232 177.217 45.28 177.985 42.912C178.753 40.544 179.489 38.144 180.193 35.712C180.897 33.216 181.473 31.072 181.921 29.28C180.129 31.008 178.337 32.896 176.545 34.944C174.817 36.992 173.217 38.944 171.745 40.8C170.273 42.656 169.057 44.192 168.097 45.408C167.265 46.496 166.625 47.648 166.177 48.864C165.729 50.08 165.505 51.232 165.505 52.32C165.505 53.536 165.761 54.528 166.273 55.296C166.785 56.064 167.489 56.448 168.385 56.448ZM191.896 58.08C190.04 58.08 188.728 57.632 187.96 56.736C187.128 55.776 186.712 54.592 186.712 53.184C186.712 51.392 187.224 49.28 188.248 46.848C189.336 44.416 190.776 41.952 192.568 39.456C194.36 36.96 196.376 34.656 198.616 32.544C200.856 30.368 203.128 28.64 205.432 27.36C207.8 26.016 210.072 25.344 212.248 25.344C213.848 25.344 215 25.76 215.704 26.592C216.408 27.424 216.76 28.512 216.76 29.856C216.76 31.648 216.248 33.792 215.224 36.288C214.2 38.72 212.792 41.216 211 43.776C209.272 46.272 207.32 48.608 205.144 50.784C203.032 52.96 200.824 54.72 198.52 56.064C196.216 57.408 194.008 58.08 191.896 58.08ZM193.048 56.256C194.392 56.256 195.992 55.584 197.848 54.24C199.768 52.832 201.72 51.04 203.704 48.864C205.688 46.688 207.512 44.384 209.176 41.952C210.904 39.456 212.28 37.12 213.304 34.944C214.392 32.704 214.936 30.88 214.936 29.472C214.936 27.936 214.2 27.168 212.728 27.168C211.512 27.168 209.976 27.904 208.12 29.376C206.328 30.784 204.44 32.608 202.456 34.848C200.536 37.088 198.712 39.456 196.984 41.952C195.256 44.448 193.848 46.816 192.76 49.056C191.736 51.296 191.224 53.056 191.224 54.336C191.224 55.616 191.832 56.256 193.048 56.256Z" fill="black"/>
</svg>
