<svg width="127" height="109" viewBox="0 0 127 109" fill="none" xmlns="http://www.w3.org/2000/svg">
<path d="M12.6849 7.07121e-07C12.5317 -0.0020815 12.3704 1.57832 12.3704 3.11499C12.3635 8.00818 13.6288 13.3719 15.7289 17.3708C17.0495 19.8851 18.4155 21.8059 20.906 24.6492C22.0311 25.9339 23.1624 27.2759 23.4207 27.632C23.7004 28.0182 24.2968 29.5164 24.8982 31.3445C25.4528 33.0301 26.1699 34.9863 26.4915 35.6922C26.8129 36.3981 27.0339 37.0425 26.9828 37.1258C26.886 37.283 25.2546 36.0951 24.6276 35.4111C24.4287 35.1945 23.7354 33.9254 23.087 32.5907C21.7703 29.8818 20.4136 27.8006 18.5649 25.6539C17.0909 23.9423 15.4537 22.543 11.62 19.7216C10.0587 18.5733 7.91489 16.9825 6.85619 16.1881C5.53128 15.1949 4.91339 14.8201 4.87476 14.9877C4.77565 15.4188 5.36877 17.756 5.97011 19.3052C6.83568 21.5332 8.22327 24.3264 9.13809 25.682C12.3847 30.4929 17.783 34.7052 22.7988 36.3429C23.7765 36.6625 24.4635 37.0487 25.6675 37.9576C27.681 39.4776 28 39.8691 28.4286 41.3381C28.6215 41.9982 29.0817 43.4651 29.4509 44.5968C29.8199 45.7284 30.0757 46.7008 30.0195 46.757C29.9633 46.8143 29.7103 46.6706 29.4584 46.4395C29.2065 46.2084 28.7375 45.843 28.4156 45.6274C28.0938 45.413 26.7775 44.2136 25.4905 42.9633C21.4183 39.0071 18.669 37.5547 12.4528 36.0784C6.2384 34.6021 4.10164 34.0587 2.46544 33.5381C1.47722 33.2237 0.668597 32.9988 0.668597 33.0374C0.668597 33.2341 1.47743 34.6584 2.21995 35.7692C4.71901 39.5068 7.211 41.7931 10.428 43.3006C13.1456 44.5738 15.3709 45.0299 21.7844 45.6285C23.791 45.8159 25.7708 46.0449 26.1843 46.1376C27.2768 46.3822 28.3472 46.9819 29.6189 48.0595C30.9641 49.2005 31.053 49.3921 33.1821 55.8115C34.6137 60.128 34.6413 60.2435 34.4556 61.0473C34.1602 62.3278 34.2048 62.4767 35.2058 63.573C36.1932 64.6547 36.4896 65.1919 36.6782 66.243L36.7921 66.8806L35.2368 65.8398C34.3812 65.2679 33.1165 64.3309 32.4266 63.7593C31.3638 62.8786 31.0205 62.4538 30.1854 60.9858C29.0023 58.9067 28.1189 57.7303 26.8057 56.483C23.3824 53.2317 18.7812 51.2359 12.713 50.3676C10.5595 50.0605 0 49.8408 0 50.1032C0 50.5415 3.46688 53.1911 6.68608 55.2139C7.83535 55.9365 10.0992 57.1858 11.7172 57.9916L14.6588 59.4554L16.5646 59.4533C17.7167 59.4533 18.9659 59.5616 19.7238 59.7271C21.3167 60.0769 23.7126 61.2294 24.963 62.2476C26.065 63.1451 26.5625 63.3491 28.8629 63.8468C29.766 64.0415 30.693 64.3226 30.9229 64.4714C31.1527 64.6193 32.7457 65.8625 34.4631 67.2335C37.523 69.6765 37.5992 69.7526 38.27 71.0421C38.931 72.3127 40.6299 76.0514 40.5462 76.0513C40.5241 76.0514 39.0827 75.1065 37.3438 73.9518C34.1623 71.839 30.2805 69.7622 28.4649 69.2018L27.4963 68.9031L27.4381 68.7457L27.0714 70.7218C27.1639 70.6065 27.2374 70.5355 27.2738 70.5355C27.3639 70.5355 27.9973 70.7232 28.6816 70.9529C30.984 71.7259 34.4939 73.6638 37.6228 75.8898C39.1809 76.9983 39.2397 77.064 39.7833 78.3112C40.3055 79.5086 40.4174 79.6428 41.4823 80.3444C43.2471 81.507 43.6527 82.2098 42.9589 82.9036C42.6262 83.2365 42.6247 83.2363 41.5798 82.8373C38.9552 81.8352 37.6442 81.1014 36.3735 79.9232C34.2388 77.9441 30.8161 75.9213 27.7071 74.802L26.4137 74.3364L25.5341 75.0079C24.4189 75.8599 23.3065 76.4162 21.7256 76.9125C20.6327 77.2558 20.1515 77.3039 17.8853 77.2968C15.4278 77.2891 15.2119 77.2614 13.6919 76.7546C11.1739 75.9149 9.39972 74.6326 7.82369 72.5131C7.35645 71.885 6.92824 71.3713 6.87212 71.3718C6.67463 71.3738 2.77048 72.2222 2.71812 72.2748C2.68782 72.3036 3.68135 73.034 4.92401 73.897C12.8776 79.4211 13.9643 80.0647 17.976 81.6248C20.8419 82.7393 22.5882 83.18 25.031 83.4057C27.5863 83.6417 31.5857 83.2545 34.6246 82.4772C36.9507 81.8821 38.5538 82.4436 43.8476 85.7076C45.7722 86.8943 48.2486 89.2553 48.9513 90.5732C49.3903 91.3971 49.6437 91.6581 50.4395 92.1043C51.5783 92.7428 53.5142 94.1333 53.4098 94.2378C53.3349 94.3125 51.742 94.0615 50.2289 93.7364C49.7465 93.6327 48.7187 93.1442 47.7984 92.5817C45.8692 91.4022 40.9459 89.3913 40.7814 89.5824C40.7149 89.6587 40.3189 90.2201 39.9015 90.8295L39.1418 91.9369L39.9991 92.0397C40.2661 92.0717 41.4633 92.3997 42.5558 92.6871C41.7558 92.6091 40.8659 92.5741 40.148 92.6561L38.4363 92.8516L37.9238 93.7468C37.6422 94.2392 36.9973 95.1788 36.4907 95.8345C35.9862 96.4919 35.5939 97.0509 35.6235 97.0806C35.7744 97.2316 42.9771 97.013 45.114 96.2677C49.1045 94.8759 49.0766 94.8812 50.7797 95.1751C53.7997 95.6962 55.6971 96.1672 56.1637 96.5113C58.6445 98.3401 59.5143 99.0825 59.6109 99.4524C59.9325 100.684 60.6415 101.291 61.7578 101.291C62.2716 101.291 62.8824 101.691 66.1538 104.166C68.2433 105.747 70.2162 107.173 70.5379 107.335C70.8596 107.497 71.2167 107.632 71.3322 107.636C71.7424 107.649 71.5352 106.527 70.8752 105.161C70.3005 103.975 70.213 103.643 70.237 102.767C70.263 101.8 70.237 101.726 69.6904 101.265C68.6056 100.348 67.831 99.9975 66.6722 99.898C65.6801 99.8129 65.3262 99.6677 63.2648 98.4995C61.9997 97.7824 60.6173 96.8847 60.1934 96.5045L59.4225 95.813L59.3663 93.9692C59.2876 91.3863 59.3663 91.2493 61.8779 89.6255C65.0367 87.5827 66.3662 86.5642 68.2818 84.7197C70.6118 82.4755 71.9715 80.647 73.2999 77.9736C74.5295 75.4974 75.3301 72.9171 75.8808 69.6507C76.4357 66.3685 76.4742 66.3976 74.2577 68.4412C73.0053 69.5962 71.2916 70.9074 69.122 72.3708C67.3313 73.5786 65.2621 75.055 64.5229 75.6518C61.6556 77.9669 59.3133 81.3389 58.3191 84.5832C57.9236 85.8735 57.853 87.4138 58.0164 91.1785C58.0524 92.0058 58.0234 93.117 57.9455 93.6479L57.8098 94.6129L56.6123 93.5045C55.9538 92.8949 54.6532 91.808 53.7218 91.089C51.5346 89.4006 49.939 87.7806 49.4026 86.7042C48.9027 85.7008 48.8386 84.1549 49.2112 82.0688C49.4278 80.8535 50.4537 77.5148 50.763 77.0478L48.913 75.8379C49.0083 76.2076 48.6854 77.4468 48.2418 79.126C48.0014 80.0359 47.7559 81.523 47.6965 82.4305C47.5909 84.0437 47.5812 84.0739 47.2677 83.7903C46.4823 83.0795 43.4494 77.6072 41.9399 74.1765C41.382 72.9092 41.2873 72.5211 41.2873 71.5096C41.2873 70.0912 41.8075 67.8006 42.4262 66.4961C42.7984 65.7109 43.2749 65.195 45.2154 63.4741C48.1258 60.8942 49.3695 59.5658 50.6275 57.6949C53.2647 53.772 54.8103 49.1964 55.342 43.7347C55.5463 41.6379 55.4612 37.1601 55.204 36.4647C55.0681 36.0972 55.0458 36.1065 54.5068 36.777C54.2011 37.1591 52.6697 38.8311 51.105 40.4948C43.5548 48.5217 42.3216 51.2973 41.6997 61.6625C41.4977 65.0243 41.3745 66.1174 41.1222 66.7746C40.9456 67.2342 40.677 68.0502 40.5259 68.5881C40.3747 69.1258 40.1931 69.502 40.1224 69.4238C39.9551 69.238 38.2171 64.7942 37.0276 61.5095C35.1589 56.3487 34.958 55.0921 35.5996 52.5841C36.0165 50.9537 36.4606 50.3041 39.3403 47.111C44.8859 40.9612 46.4005 38.0909 47.4866 31.6725C47.8625 29.4508 48.0902 24.6877 47.894 23.1396C47.7684 22.1474 47.7678 22.1464 47.4954 22.5628C46.9008 23.4738 44.5699 26.4784 42.1792 29.4164C37.729 34.8853 36.6036 36.8541 35.3942 41.284C34.8816 43.1631 34.8689 43.2964 34.8366 47.1714C34.8076 50.683 34.7629 51.2713 34.4468 52.3113C34.2506 52.9579 34.057 53.4867 34.0173 53.4867C33.9775 53.4867 33.5969 52.3769 33.172 51.0214C32.7471 49.6649 32.0239 47.39 31.5648 45.9648C30.5923 42.9445 30.424 41.5911 30.8143 39.9337C30.9567 39.3277 31.8385 37.0727 32.7742 34.9218C36.1284 27.2103 36.5942 25.7538 36.7279 22.5628C36.8603 19.4031 36.1328 15.3407 34.6337 10.8712L33.9919 8.95662L33.1894 11.372C32.748 12.7004 31.9827 14.8607 31.4887 16.1725C30.3654 19.1563 29.6981 21.3926 29.2158 23.7882C28.8913 25.404 28.8421 26.1744 28.8421 29.5007C28.8421 32.851 28.8964 33.6235 29.2489 35.5173C29.6744 37.8035 29.7173 38.5729 29.4476 39.055C29.318 39.2871 29.1933 39.0393 28.8431 37.8504C28.6006 37.0269 28.0201 35.2633 27.5528 33.9296C24.4551 25.0896 24.7056 26.1317 24.238 20.1402C24.0186 17.3292 23.7358 15.8623 22.9675 13.5489C21.4053 8.84626 17.7437 3.69383 13.9582 0.873481C13.3147 0.393532 12.7422 7.07121e-07 12.6861 7.07121e-07H12.6849ZM16.8989 10.0654C17.0647 10.107 18.3539 12.3537 19.3726 14.3974C20.3792 16.4161 21.0254 18.161 22.8147 23.6924C22.941 24.0839 23.0185 24.4035 22.9869 24.4035C22.9553 24.4035 22.7437 24.0839 22.5164 23.6924C21.6497 22.2036 20.9022 20.5618 20.0621 18.3026C19.5837 17.0148 18.6716 14.6733 18.0359 13.0981C17.4004 11.5229 16.8806 10.1685 16.8806 10.0893C16.8806 10.0706 16.8874 10.0623 16.8989 10.0654ZM32.9858 19.5259C33.0376 19.5093 33.0433 19.7144 33.0048 20.1412C32.6775 23.7257 32.4963 25.1395 31.9117 28.6658C31.546 30.8719 31.2111 32.7521 31.1681 32.8437C31.1252 32.9364 31.1252 31.6194 31.1681 29.9193C31.253 26.5856 31.5693 24.3015 32.3374 21.478C32.6847 20.2026 32.8991 19.5551 32.9858 19.5259ZM11.3745 22.6524C11.4585 22.6732 12.1171 23.1968 12.9107 23.8767C15.1156 25.7673 17.9419 28.7293 19.3651 30.6428C20.0372 31.5465 20.5567 32.3159 20.5194 32.3534C20.4033 32.4689 13.4892 25.3905 12.3996 24.0401C11.8306 23.3353 11.3646 22.7117 11.3646 22.6544C11.3646 22.6534 11.3646 22.6513 11.3747 22.6524H11.3745ZM43.8548 32.9281C43.9693 32.9281 41.8779 37.5714 39.7185 42.1127C37.1059 47.6066 36.8941 47.7794 38.4826 43.1236C39.5365 40.0346 40.7379 37.5578 42.435 34.9749C43.1749 33.8494 43.8136 32.9281 43.8548 32.9281ZM11.3138 38.956C11.7036 38.9342 15.4909 40.1471 17.3823 40.8987C19.2693 41.6494 24.2355 44.0491 24.2355 44.2115C24.2355 44.3448 24.0759 44.3011 22.1461 43.6431C19.4805 42.7332 10.8138 38.9831 11.3138 38.956ZM51.0782 46.0137C51.0851 46.0158 51.0883 46.0158 51.0915 46.0179C51.2171 46.1438 49.1525 51.6221 48.0247 54.1541C47.4309 55.4867 46.5451 57.3295 46.0567 58.2498C44.8992 60.4288 43.4602 62.8171 43.4598 62.5589C43.4598 62.3059 45.2213 57.5897 46.0697 55.5752C47.3401 52.557 50.7717 46.0168 51.0788 46.0127L51.0782 46.0137ZM11.0226 53.1796C11.7685 53.1588 16.4575 54.3717 18.7199 55.191C21.3614 56.1478 24.7177 58.0634 26.5691 59.6709C26.8875 59.9468 27.0754 60.1613 26.987 60.1467C26.8985 60.1311 25.4351 59.421 23.7344 58.5673C20.8856 57.1369 14.6879 54.5414 11.9879 53.6471C11.3651 53.4409 10.8877 53.24 10.9275 53.2004C10.9376 53.1859 10.9729 53.1807 11.0226 53.1796ZM70.2838 75.2169C70.4629 75.2169 69.2 76.7545 66.7128 79.5628C63.5004 83.1911 61.9072 85.1379 61.0205 86.5188C59.7727 88.4617 59.8115 88.4154 59.9268 87.8367C60.1023 86.9557 61.0823 84.866 61.9012 83.6276C62.9619 82.0233 64.8206 79.925 66.539 78.3908C68.8232 76.3521 70.162 75.2169 70.2838 75.2169Z" fill="black"/>
<path d="M60.7727 61.2593L58.5912 61.2713C56.5715 61.2819 56.2881 61.3245 54.746 61.8467C50.6825 63.2238 47.8239 66.3599 47.0149 70.3296C46.7994 71.3874 46.7881 71.7912 46.9524 72.6813C47.9057 76.6736 49.9947 77.9289 53.8193 77.9276C55.8251 77.919 57.5461 77.4805 59.6696 76.4367C63.5728 74.5194 66.1667 70.265 65.5673 66.7644C65.1694 64.4419 64.0365 62.8713 62.0506 61.8906L60.7727 61.2593ZM58.0145 63.3882C58.2506 63.3955 58.4535 63.4267 58.6119 63.4846L59.0849 63.6569L58.6079 63.6702C57.9386 63.6882 55.2722 64.6049 54.1552 65.2004C52.9378 65.849 51.6246 66.9354 50.7118 68.0484C50.31 68.538 49.7099 69.4681 49.3786 70.114L48.7772 71.2889L48.865 70.4254C49.0387 68.7223 50.5761 66.3772 52.2453 65.2695C53.788 64.2457 56.2814 63.4354 57.7676 63.3888C57.8535 63.3862 57.936 63.3862 58.0145 63.3888" fill="black"/>
<path d="M16.7233 60.8596C12.475 60.8596 9.71761 62.3072 8.31132 65.2759C7.80312 66.3482 7.76953 66.5372 7.76953 68.2786C7.76953 69.9065 7.82068 70.2417 8.18272 70.9816C8.702 72.0439 10.1859 73.5389 11.4137 74.2374C13.6158 75.49 17.1361 76.2332 19.5575 75.9561C21.4633 75.7384 23.0703 75.1595 24.3701 74.2233C27.9481 71.3241 28.57 68.2492 25.5872 64.482C24.822 63.5311 23.854 62.8374 22.4912 62.183C20.2809 61.122 19.1373 60.8596 16.7233 60.8596ZM16.0721 62.8193C17.3135 62.796 18.7572 63.035 19.7002 63.435L20.4116 63.7375L18.3986 63.6693C15.9775 63.5879 14.4202 63.8717 12.6358 64.719C11.8937 65.0716 11.1066 65.6131 10.6449 66.0878L9.88153 66.8737V66.3756C9.88153 64.7931 12.6054 63.0978 15.5544 62.8454C15.7213 62.8307 15.8947 62.8227 16.0721 62.8193Z" fill="black"/>
<path d="M23.2753 77.3922C23.8549 77.387 25.5294 77.6179 26.9108 77.9133C28.4192 78.2361 33.6749 79.8959 34.2475 80.2304C34.4784 80.3661 34.4692 80.3869 34.1816 80.3804C32.6986 80.3472 23.0664 77.7959 23.0664 77.4359C23.0664 77.4072 23.142 77.3936 23.2753 77.3922Z" fill="black"/>
<path d="M31.3598 87.0689C29.6922 87.0728 29.1001 87.1478 27.9184 87.438C26.1548 87.8711 21.6918 89.2543 20.4796 89.7434C20.342 89.7988 20.4208 89.9527 20.7185 90.2103C20.9628 90.4216 21.683 91.1012 22.3196 91.7207C23.7613 93.1241 26.3507 94.9919 27.7566 95.6421L28.8209 96.1345L30.3118 94.2674C31.1315 93.2409 31.8098 92.3507 31.8274 92.29C31.8404 92.2294 31.4452 92.0918 30.947 91.9842C29.1633 91.5994 26.9421 90.9583 26.8482 90.8018C26.7875 90.7001 26.9584 90.6707 27.3184 90.7216C27.6288 90.7653 28.8392 90.8468 30.0085 90.9029C31.1778 90.959 32.2552 91.0183 32.4032 91.034C32.6073 91.0562 33.0058 90.6244 34.0714 89.2262L35.4716 87.3898L35.139 87.2398C34.9557 87.1569 33.6084 87.0813 32.145 87.0715C31.858 87.0696 31.5978 87.0682 31.3598 87.0689Z" fill="black"/>
<path d="M102.154 2.04746L101.192 2.84559C99.9901 3.84121 98.0822 5.95073 95.5952 9.03118C94.5389 10.3405 93.316 11.6694 92.8778 11.9841C91.7917 12.7637 91.2384 13.5403 91.0471 14.5503C90.9051 15.298 90.2366 16.2854 85.3953 22.8927C82.3755 27.015 78.2871 32.5681 76.3103 35.234C74.3324 37.9 71.7858 41.361 70.6503 42.9233C69.5148 44.4867 67.7436 46.8935 66.713 48.2727L66.495 48.5648C66.5886 48.7417 66.6297 48.9413 66.6143 49.1408L66.5022 50.5612C66.3438 52.572 66.1072 54.5663 65.8213 56.3333C68.9696 52.2151 78.6872 38.9779 86.5195 28.1053C93.2574 18.7498 94.4752 17.1494 95.2023 16.6907C96.1115 16.1157 96.668 15.3278 97.1123 13.9836C97.3931 13.135 97.8498 12.3636 98.866 11.0193C99.6209 10.0196 100.496 8.66606 100.811 8.00985C101.626 6.31483 102.268 3.96361 102.206 2.90936L102.154 2.04746ZM94.975 18.9678C94.9524 18.9966 93.5937 21.1267 91.9563 23.7011C83.511 36.9795 78.1524 44.424 73.7575 48.9845C72.9367 49.8361 72.2959 50.5571 72.3329 50.5859C72.37 50.6157 73.4736 51.3768 74.7839 52.2778C76.0953 53.1788 78.3519 54.8625 79.7991 56.0186C82.8198 58.4315 88.1538 63.6544 90.1193 66.1239C90.8362 67.0251 91.477 67.7021 91.5438 67.6284C91.6107 67.5549 91.9501 66.8553 92.2967 66.0735C93.5495 63.2523 96.5199 57.2539 97.677 55.2091C98.328 54.0603 99.662 51.7286 100.642 50.0274C103.069 45.8176 105.478 40.9732 105.98 39.2957C108.244 31.7329 105.188 25.4753 96.487 19.8616C95.6785 19.3412 94.9977 18.938 94.975 18.9678ZM105.88 42.8627C105.866 42.8575 105.858 42.8585 105.855 42.8627C105.832 42.8956 105.49 43.6382 105.095 44.5114C104.109 46.6908 102.488 49.7692 100.648 52.9525C98.3568 56.9175 95.876 61.7002 94.0607 65.6559C93.1741 67.5865 92.0972 69.7086 91.6683 70.3713C89.8396 73.1925 87.874 73.5722 83.2662 71.9946C81.1752 71.2784 80.7669 71.1922 79.4216 71.1826L77.9179 71.1718L77.9415 71.7108C77.9569 72.0568 78.2357 72.6259 78.7201 73.2987C80.1611 75.3034 81.6802 76.4834 87.1952 79.8827C92.1157 82.9149 94.2561 84.4915 96.5744 86.7936C99.3453 89.5438 101.048 92.0767 102.006 94.8701C102.537 96.4154 102.906 98.1526 102.906 99.0969H102.907C102.907 99.5046 102.966 99.8382 103.039 99.8382C103.282 99.8382 104.696 98.2579 105.416 97.1792C107.013 94.7871 108.789 90.2755 109.569 86.6333C109.756 85.76 110.213 83.2026 110.584 80.9502C111.729 74.0147 112.174 72.9215 114.258 71.9446C115.155 71.524 115.308 71.5065 118.034 71.5143C121.051 71.523 122.5 71.725 125.244 72.5201C126.037 72.7502 126.727 72.8984 126.775 72.8496C127.056 72.5689 125.614 66.3841 124.692 63.9177C122.894 59.1032 120.264 55.4879 115.156 50.8101C111.338 47.3152 106.287 42.9912 105.88 42.8627ZM83.3002 62.0787C83.2755 62.1157 82.8137 62.8223 82.2737 63.6503C81.0611 65.5089 80.0767 66.8017 78.9268 68.0438L78.0433 68.999L79.15 69.0107C80.1158 69.0211 80.5458 69.147 82.5133 69.9963C83.7548 70.5319 85.1844 71.1091 85.6894 71.279C86.3343 71.4958 86.9926 71.5757 87.8946 71.5464C89.0445 71.509 89.2307 71.4555 89.6678 71.0374C89.9352 70.7805 90.2469 70.2651 90.3579 69.8922C90.5534 69.2403 90.5379 69.1782 89.9435 68.271C89.1823 67.1099 86.3816 64.326 84.6393 62.9982C83.9276 62.4562 83.3269 62.0437 83.3002 62.0787ZM46.6797 74.1268C46.0189 74.9827 45.082 76.2062 44.2018 77.3559C44.6122 78.1515 45.0336 78.9475 45.4444 79.6888C45.7293 80.203 46.0053 80.687 46.2658 81.1308L47.4666 79.5562C47.5127 79.3461 47.5595 79.1433 47.6076 78.9614C47.9368 77.7153 48.0892 77.0753 48.1048 76.8234C48.1124 76.6975 48.1047 76.6957 48.0915 76.6671C48.0788 76.6384 48.0273 76.5577 47.9113 76.4055C47.4082 75.7454 46.9818 74.9473 46.6805 74.1271L46.6797 74.1268ZM39.251 83.8412C37.4868 86.1661 35.9705 88.1787 35.3828 88.9941C33.5023 91.6028 26.4626 100.158 24.4087 102.897C22.355 105.637 20.6401 107.969 20.5976 108.079C20.5389 108.231 21.1384 108.266 23.072 108.225L25.623 108.17L26.6705 106.72C27.247 105.923 32.8461 99.2489 34.443 96.9965C36.0402 94.7441 38.5499 91.29 40.0202 89.32L42.7156 85.7853C41.2949 84.9237 40.1724 84.2897 39.251 83.8412Z" fill="black"/>
<path d="M62.7617 60.6556C62.3021 60.3869 61.5353 60.0516 61.0587 59.9103L60.1905 59.6535L60.4947 58.9518C60.6627 58.5662 60.9973 57.8061 61.2393 57.2636C61.4821 56.7211 61.6523 56.2496 61.619 56.2156C61.5857 56.1823 60.9388 56.9461 60.1809 57.9134L58.8043 59.6712H57.8428C56.7926 59.6712 54.6477 60.1619 53.8136 60.5934C53.5235 60.7437 53.257 60.8362 53.2207 60.7999C53.1845 60.7636 53.65 60.0058 54.2547 59.1161C56.1058 56.3947 58.7421 53.9559 63.0126 51.0154C63.886 50.4137 64.8156 49.7276 65.0783 49.4893L65.5557 49.057L65.4432 50.4781C65.1376 54.3601 64.5136 58.2524 63.8734 60.2744L63.5973 61.1441L62.7617 60.6556Z" fill="black"/>
</svg>
