<svg width="900" height="520" viewBox="0 0 900 520" fill="none" xmlns="http://www.w3.org/2000/svg">
  <rect width="900" height="520" fill="#d9d9d9"/>
  <path d="M0 520c126-104 273-159 441-166 166-7 319 36 459 129v37H0Z" fill="#c7c7c7" opacity=".55"/>
  <g transform="translate(350 106)" opacity=".32">
    <path d="M75 0h50l15 38c-27 20-53 20-80 0L75 0Z" fill="#006233"/>
    <path d="M14 79C47 48 82 33 120 33h60c38 0 73 15 106 46l67 63-55 69-48-37v167H50V174L2 211l-55-69 67-63Z" fill="#161616"/>
    <path d="M74 45c45 33 93 33 144 0M68 92v205M232 92v205M50 174c66 28 133 42 200 0" stroke="#fff" stroke-width="5"/>
  </g>
</svg>
