<svg width="900" height="620" viewBox="0 0 900 620" fill="none" xmlns="http://www.w3.org/2000/svg">
  <rect width="900" height="620" fill="#d9d9d9"/>
  <filter id="n" x="0" y="0" width="100%" height="100%"><feTurbulence type="fractalNoise" baseFrequency=".6" numOctaves="2"/><feComponentTransfer><feFuncA type="table" tableValues="0 .08"/></feComponentTransfer></filter>
  <rect width="900" height="620" filter="url(#n)"/>
  <path d="M241 156h418l49 54v266H192V210l49-54Z" fill="#202923" opacity=".9"/>
  <path d="M292 156c30 52 82 78 158 78s128-26 158-78M256 254c64 45 129 68 194 68s130-23 194-68M284 356h332M316 434h268" stroke="#efeee8" stroke-width="8"/>
  <path d="M414 195h72l13 39-49-28-49 28 13-39Z" fill="#b60000"/>
</svg>
