<svg width="900" height="620" viewBox="0 0 900 620" fill="none" xmlns="http://www.w3.org/2000/svg">
  <rect width="900" height="620" fill="#f5f4ef"/>
  <path d="M148 423c91-135 191-223 300-264 95-36 186-33 273 10M209 456c90-69 167-108 231-116 71-9 143 16 217 75" stroke="#222" stroke-width="3" opacity=".48"/>
  <path d="M337 176h226l47 62c44 12 83 39 118 81l63 75-84 101-70-55v186H263V440l-70 55-84-101 63-75c35-42 74-69 118-81l47-62Z" stroke="#111" stroke-width="6" opacity=".55"/>
  <path d="M378 176h144l18 75c-60 35-121 35-182 0l20-75Z" stroke="#111" stroke-width="5" opacity=".55"/>
  <path d="M315 289c88 56 178 56 270 0M321 374c82 39 168 39 258 0" stroke="#111" stroke-width="4" opacity=".45"/>
</svg>
